<?xml version="1.0" encoding="utf-8"?>
<!-- Generator: Adobe Illustrator 24.2.1, SVG Export Plug-In . SVG Version: 6.00 Build 0)  -->
<svg version="1.1" id="Layer_2" xmlns="http://www.w3.org/2000/svg" xmlns:xlink="http://www.w3.org/1999/xlink" x="0px" y="0px"
	 viewBox="0 0 283.5 283.5" style="enable-background:new 0 0 283.5 283.5;" xml:space="preserve">
<style type="text/css">
	.st0{fill:#35200B;}
	.st1{fill:#EABE71;}
	.st2{fill:#FFFFFF;}
</style>
<rect x="0" y="0.2" class="st0" width="283.4" height="283.4"/>
<path class="st1" d="M139.7,44c48.1,0,87.8,35.9,93.7,82.4V70.6l-93.7-54.1L46,70.6v55.9C51.9,80,91.6,44,139.7,44z"/>
<polygon class="st2" points="274.9,144.5 141.2,144.5 7.6,144.5 21.2,172.8 7.6,201.2 141.2,201.2 274.9,201.2 261.2,172.8 "/>
<g>
	<polygon class="st1" points="242.5,138.6 240,138.6 240,67.4 139.7,9.5 39.4,67.4 39.4,138.6 36.9,138.6 36.9,65.9 139.7,6.6 
		242.5,65.9 	"/>
</g>
<path class="st2" d="M138.7,67.9c2.3-2.2,9.6-5.1,9-12.9c-0.3-4.4-2.7-6.5-2.7-6.5s1.2,1.8,0.8,7.2c-0.4,5.5-6.2,6.9-9.2,12.4
	c-2.2,4,0,7.1,0,7.1C136.6,74.6,136.2,70.2,138.7,67.9z M137.3,76.4c-1.8,4.7,3.9,11.3,3.9,11.3s-2.4-7.6-0.9-11.1
	c1.4-3.2,13-6.7,12.2-15.1c-0.4-4.7-3.9-6.9-3.9-6.9s1.7,2,1.2,7.7C149.3,68.3,140.2,68.9,137.3,76.4z M193.4,93.3
	c-2.4-2.8-5.9-4.3-9.9-4.3c-3.1,0-6,1.6-8.4,3.5c0.1-2,0.2-3.2,0.2-3.2h-74.9c0,0,0.5,14.8,2.7,23.4c2.3,8.6,12.2,16.8,12.2,16.8
	h45.1c0,0,6.6-5.5,10.2-12.1c0.5,0.1,1.1,0.1,1.7,0.1c4.3,0,9.8-1.7,14.5-4.7c5-3.1,8.2-7.2,8.9-11.4
	C196.3,98.7,195.4,95.7,193.4,93.3z M174.9,96.7c0,0,5.5-6.1,10.2-4c0,0-7,0.8-10.4,7L174.9,96.7z M174.4,101.1
	c1.9-2.7,5.6-6.8,9-6.8c2.5,0,4.5,0.9,5.9,2.4c1,1.2,1.4,2.6,1.2,3.9c-0.4,2.7-2.7,5.4-6.5,7.8c-3.9,2.5-8.5,3.8-11.4,3.9
	C173.5,109,174,104.9,174.4,101.1z M106.7,91.7c1.1-0.1,2.1-0.2,3.2-0.2c1.1,0,2.1,0.1,3.2,0.2c1.1,0.1,2.1,0.3,3.2,0.6
	c-1.1,0.3-2.1,0.5-3.2,0.6c-1.1,0.1-2.1,0.2-3.2,0.2c-1.1,0-2.1-0.1-3.2-0.2c-1.1-0.1-2.1-0.3-3.2-0.6
	C104.6,91.9,105.6,91.8,106.7,91.7z M106.9,94.3c1-0.1,2.1-0.2,3.1-0.2c1,0,2.1,0.1,3.1,0.2c1,0.1,2.1,0.3,3.1,0.6
	c-1,0.3-2.1,0.4-3.1,0.6c-1,0.1-2.1,0.2-3.1,0.2c-1,0-2.1-0.1-3.1-0.2c-1-0.1-2.1-0.3-3.1-0.6C104.8,94.6,105.8,94.4,106.9,94.3z
	 M107.9,97.1c0.9-0.1,1.8-0.1,2.8-0.1s1.8,0.1,2.8,0.1c0.9,0.1,1.8,0.2,2.8,0.5c-0.9,0.3-1.8,0.4-2.8,0.5c-0.9,0.1-1.8,0.1-2.8,0.1
	s-1.8-0.1-2.8-0.1c-0.9-0.1-1.8-0.2-2.8-0.5C106.1,97.3,107,97.2,107.9,97.1z M107.9,100.4c0.9-0.1,1.8-0.1,2.7-0.1s1.8,0.1,2.7,0.1
	c0.9,0.1,1.8,0.2,2.7,0.5c-0.9,0.3-1.8,0.4-2.7,0.5c-0.9,0.1-1.8,0.1-2.7,0.1s-1.8-0.1-2.7-0.1c-0.9-0.1-1.8-0.2-2.7-0.5
	C106.1,100.6,107,100.5,107.9,100.4z M108.8,103.7c0.8-0.1,1.6-0.1,2.4-0.1c0.8,0,1.6,0,2.4,0.1c0.8,0.1,1.6,0.2,2.4,0.4
	c-0.8,0.2-1.6,0.3-2.4,0.4c-0.8,0.1-1.6,0.1-2.4,0.1c-0.8,0-1.6,0-2.4-0.1c-0.8-0.1-1.6-0.2-2.4-0.4
	C107.2,103.9,108,103.8,108.8,103.7z M109.5,106.5c0.7-0.1,1.5-0.1,2.2-0.1s1.5,0,2.2,0.1c0.7,0.1,1.5,0.2,2.2,0.4
	c-0.7,0.2-1.5,0.3-2.2,0.4s-1.5,0.1-2.2,0.1s-1.5,0-2.2-0.1c-0.7-0.1-1.5-0.2-2.2-0.4C108,106.7,108.8,106.6,109.5,106.5z
	 M110.1,110c0.7-0.1,1.4-0.1,2.1-0.1c0.7,0,1.4,0,2.1,0.1c0.7,0.1,1.4,0.2,2.1,0.4c-0.7,0.2-1.4,0.3-2.1,0.4
	c-0.7,0.1-1.4,0.1-2.1,0.1c-0.7,0-1.4,0-2.1-0.1c-0.7-0.1-1.4-0.2-2.1-0.4C108.7,110.2,109.4,110.1,110.1,110z M110.7,112.3
	c0.6-0.1,1.3-0.1,1.9-0.1c0.6,0,1.3,0,1.9,0.1c0.6,0.1,1.3,0.2,1.9,0.3c-0.6,0.2-1.3,0.3-1.9,0.3c-0.6,0.1-1.3,0.1-1.9,0.1
	c-0.6,0-1.3,0-1.9-0.1c-0.6-0.1-1.3-0.2-1.9-0.3C109.5,112.5,110.1,112.4,110.7,112.3z M111.1,114.2c0.6-0.1,1.1-0.1,1.7-0.1
	c0.6,0,1.1,0,1.7,0.1c0.6,0.1,1.1,0.1,1.7,0.3c-0.6,0.2-1.1,0.2-1.7,0.3c-0.6,0.1-1.1,0.1-1.7,0.1c-0.6,0-1.1,0-1.7-0.1
	c-0.6-0.1-1.1-0.1-1.7-0.3C110,114.4,110.5,114.3,111.1,114.2z M112.3,116.5c0.5-0.1,0.9-0.1,1.4-0.1c0.5,0,0.9,0,1.4,0.1
	c0.5,0.1,0.9,0.1,1.4,0.3c-0.5,0.1-0.9,0.2-1.4,0.3c-0.5,0.1-0.9,0.1-1.4,0.1c-0.5,0-0.9,0-1.4-0.1c-0.5-0.1-0.9-0.1-1.4-0.3
	C111.3,116.6,111.8,116.6,112.3,116.5z M111.8,118.8c0.4-0.1,0.8-0.2,1.2-0.2c0.4-0.1,0.8-0.1,1.2-0.1s0.8,0,1.2,0.1
	c0.4,0.1,0.8,0.1,1.2,0.2c-0.4,0.1-0.8,0.2-1.2,0.2c-0.4,0.1-0.8,0.1-1.2,0.1s-0.8,0-1.2-0.1C112.6,119,112.2,118.9,111.8,118.8z
	 M114.8,121c-0.3,0-0.6-0.1-0.9-0.2c0.3-0.1,0.6-0.1,0.9-0.2c0.3,0,0.6-0.1,0.9-0.1s0.6,0,0.9,0.1c0.3,0,0.6,0.1,0.9,0.2
	c-0.3,0.1-0.6,0.1-0.9,0.2c-0.3,0-0.6,0.1-0.9,0.1C115.4,121.1,115.1,121.1,114.8,121z M118.2,123.4c-0.2,0-0.4,0-0.6,0
	c-0.2,0-0.4,0-0.6,0c-0.2,0-0.4-0.1-0.6-0.1c0.2-0.1,0.4-0.1,0.6-0.1c0.2,0,0.4,0,0.6,0c0.2,0,0.4,0,0.6,0c0.2,0,0.4,0.1,0.6,0.1
	C118.6,123.3,118.4,123.3,118.2,123.4z M168.3,111.5c-0.7,2.7-2.3,5.3-4,7.6l-9.5,9.7l-0.3,0h-3.4c0,0,0,0,0.1-0.1l-24.6-0.8
	l14.7-0.2l-14.7-1.2l12.4-0.2l-12.4-1l16.6-0.3l-16.6-1.4l17.4-0.3l-16.5-1.3l24-0.4l-23.1-1.8l24.7-0.4l-19.3-1.8l25.9-0.5v0
	l-24.4-2.3l21.3-0.4l-20.3-1.9l25.2-0.5l-23.9-2.2l24.5-0.4c0-0.2,0.1-0.3,0.1-0.5l-23.8-2.3l24.2-0.5c0-0.1,0-0.2,0-0.4l-24.9-2.4
	l25.2-0.5c0-0.1,0-0.2,0-0.3l-24.5-2.5l22.7-0.5L140,98.2l23-0.4c0-0.1,0-0.2,0-0.2l-20.5-1.9l20.5-0.4c0-0.1,0-0.1,0-0.2l-17.5-1.6
	l17.5-0.3c0-0.1,0-0.1,0-0.2l-15.2-1.4l15.2-0.3l0,0h8.2C170.8,96.4,170,105.5,168.3,111.5z M194.3,103.4
	c-0.9,3.6-7.4,8.6-11.4,10.3c-4.3,1.8-9.1,3.1-11.2,2.7l0.4-1.6c0,0,7.2-0.2,14.7-4.8c4.3-2.7,7.5-6.7,7.1-13.4
	C193.9,96.7,195.2,99.9,194.3,103.4z M109.9,138.9c6.4,0,29.9,0,29.9,0s23.5,0,29.9,0c6.4,0,16.2-7.3,16.2-7.3h-92
	C93.7,131.5,103.5,138.9,109.9,138.9z M137,136.1l25.1-0.6l-21.8-1l22.8-0.2l-17.2-1h30.9c0,0-5.7,4.5-8.5,4.5s-50.5,0-50.5,0
	l40.7-1L137,136.1z"/>
<g>
	<polygon class="st1" points="139.7,277.2 36.8,217.7 36.8,205.3 39.6,205.3 39.6,216.1 139.7,273.9 239.8,216.1 239.8,205.3 
		242.7,205.3 242.7,217.7 241.9,218.2 	"/>
</g>
<path class="st1" d="M169.4,113.7c2-4.4,3.5-24.7,3.5-24.7h-53.4c0,0,8.7,1.8,10.1,2.3c1.4,0.5,2.8,7.3,1.5,15.3
	c-1.4,7.9-5.2,7.2-8.7,9.8c-2.8,2-2,8.7-1.5,11.3h36.6C160.2,125.2,167.6,117.7,169.4,113.7z M154.5,127h-3.4c0,0,0,0,0.1-0.1
	l-24.6-0.8l14.7-0.2l-14.7-1.2l12.4-0.2l-12.4-1l16.6-0.3l-16.6-1.4l17.4-0.3l-16.5-1.3l24-0.4l-23.1-1.8l24.7-0.4l-19.3-1.8
	l25.9-0.5v0l-24.4-2.3l21.3-0.4l-20.3-1.9l25.2-0.5l-23.9-2.2l24.5-0.4c0-0.2,0.1-0.3,0.1-0.5l-23.8-2.3l24.2-0.5c0-0.1,0-0.2,0-0.4
	l-24.9-2.4l25.2-0.5c0-0.1,0-0.2,0-0.3l-24.5-2.5l22.7-0.5L140,96.3l23-0.4c0-0.1,0-0.2,0-0.2l-20.5-1.9l20.5-0.4c0-0.1,0-0.1,0-0.2
	l-17.5-1.6l17.5-0.3c0-0.1,0-0.1,0-0.2l-15.2-1.4l15.2-0.3l0,0h8.2c-0.3,5.1-1.1,14.2-2.8,20.2c-0.7,2.7-2.3,5.3-4,7.6l-9.5,9.7
	L154.5,127z"/>
<path class="st1" d="M174.9,94.8c0.6-0.6,5.7-5.9,10.1-3.9c0,0-6.9,0.8-10.4,7l0,0.3c4.2-4.8,6.4-6.7,10.5-6.3
	c4.1,0.4,5.7,4.3,5.7,4.3c-0.2-1.6-0.7-5.9-5.4-7.1s-10.4,3.6-10.4,3.6L174.9,94.8z"/>
<path class="st1" d="M110.9,131c5.5,3.6,1.2,3.9,0.8,4.8c-0.1,0.3,0.5,0.7,1.3,1.1c8.8,0,26.7,0,26.7,0s20.4,0,28.3,0
	c6.7-1.3,12.9-5.9,12.9-5.9L110.9,131L110.9,131z M117.8,135.9l40.7-1l-21.5-0.7l25.1-0.6l-21.8-1l22.8-0.2l-17.2-1h30.9
	c0,0-5.7,4.5-8.5,4.5S117.8,135.9,117.8,135.9z"/>
<g>
	<path d="M31.6,181.4h2.2v-16.2h-2.2v-1.7h6.5l7.1,14.6l6.8-14.6h6.5v1.7h-2.2v16.2h2.2v1.7h-8.9v-1.7h2.3v-13.7h-0.1L45,182.8h-2
		l-7.1-14.6h-0.1v13.2h2.3v1.7h-6.5V181.4z"/>
	<path d="M60.4,181.6h1.9v-10.9h-1.9v-1.6h5.9v12.4h1.9v1.6h-7.8V181.6z M61.9,165.4c0-1.2,1-2.2,2.2-2.2c1.2,0,2.2,1,2.2,2.2
		s-1,2.2-2.2,2.2C62.9,167.6,61.9,166.6,61.9,165.4z"/>
	<path d="M77.9,181.4h2.3v-16.2h-2.3v-1.7h9.4c6.5,0,10.4,3.9,10.4,9.8c0,5.7-3.9,9.8-10.4,9.8h-9.4V181.4z M84.6,181.4h1.1
		c5.6,0,7-4.4,7-8c0-5.1-2.2-8.2-7.2-8.2h-0.9V181.4z"/>
	<path d="M100.1,169.1h5.9v9.4c0,1.6,0.3,2.9,1.9,2.9c1.8,0,2.5-1.5,2.5-3.5v-7.3h-1.9v-1.6h5.9v12.4h1.9v1.6h-5.9v-1.7h-0.1
		c-0.8,1.1-1.8,1.9-4.2,1.9c-2.5,0-4.2-1.4-4.2-5.3v-7.3h-1.9V169.1z"/>
	<path d="M117.9,181.6h1.9v-16.5h-1.9v-1.6h5.9v18.1h1.9v1.6h-7.8V181.6z"/>
	<path d="M139.8,174.1H138l-0.1-0.6c-0.2-2-1.2-2.9-2.8-2.9c-1.4,0-3.1,1-3.1,5.9c0,4.3,1.7,5.3,3.2,5.3c1.6,0,2.6-0.8,3.4-1.9h0.2
		l1.1,1.5c-1.4,1.3-3.1,2-5.1,2c-4.5,0-7.2-2.8-7.2-7.1c0-3.8,2.4-7.3,6.6-7.3c1.6,0,2.9,0.8,3.4,1.4h0.1l-0.1-1.2h1.8L139.8,174.1z
		"/>
	<path d="M146.4,176.7c0,3.2,1.3,5.1,4,5.1c1.7,0,3-1.1,3.9-2.7h0.2l1.3,1.2c-1,1.4-2.8,3.1-6.1,3.1c-5.2,0-7.6-3-7.6-7.3
		c0-4.6,3-7.1,7-7.1c3.5,0,6.6,2.6,6.6,6.5c0,0.5,0,0.9-0.1,1.3H146.4z M151.6,175c0-1.8-0.1-4.5-2.5-4.5c-2.4,0-2.7,2.7-2.7,4.5
		H151.6z"/>
	<path d="M165.8,181.4h2.3v-16.2h-2.3v-1.7h9.1v1.7h-2.3v6.7h8.8v-6.7H179v-1.7h9.1v1.7h-2.3v16.2h2.3v1.7H179v-1.7h2.3v-7.9h-8.8
		v7.9h2.3v1.7h-9.1V181.4z"/>
	<path d="M197.7,168.9c5.1,0,7.4,3.8,7.4,7.2s-2.4,7.2-7.4,7.2c-5.4,0-7.4-3.8-7.4-7.2S192.5,168.9,197.7,168.9z M197.7,181.8
		c2,0,3-2,3-5.7c0-3.7-0.9-5.7-3-5.7c-2.1,0-3,2-3,5.7C194.7,179.8,195.6,181.8,197.7,181.8z"/>
	<path d="M217.4,181.6L217.4,181.6c-0.6,0.8-1.6,1.7-3.9,1.7c-3.7,0-5.7-3.3-5.7-7.2s1.9-7.2,5.7-7.2c2.1,0,3.5,1,3.9,2h0.1v-1.7
		h5.9v1.6h-1.9v12.2c0,5.1-2.8,6.7-7.1,6.7c-3.4,0-5.2-1.1-6.1-2.6l2.6-2h0.2c0.6,1.2,1.7,2.9,3.5,2.9c2,0,2.8-1.1,2.8-4.7V181.6z
		 M217.6,175.9c0-3.2-0.6-5.1-2.7-5.1c-1.6,0-2.7,1.2-2.7,5.4c0,3.9,1.2,5.4,2.6,5.4c2.2,0,2.7-1.9,2.7-5V175.9z"/>
	<path d="M233.5,181.8L233.5,181.8c-0.7,1-1.9,1.6-3.8,1.6c-2.8,0-4.6-1.8-4.6-4.3c0-2.9,1.9-4.9,4.9-4.9c1.7,0,2.8,0.5,3.3,1.1h0.1
		v-3.2c0-1.3-1.4-1.6-2.2-1.6c-2.1,0-3,0.9-3.5,2h-0.2l-1.6-2c1-0.7,2.8-1.5,5.6-1.5c2.9,0,6.1,0.5,6.1,4.2v8.5h1.7v1.6h-5.7V181.8z
		 M231.4,181.5c0.9,0,2-0.5,2-1.2v-3.2c0-0.6-0.8-1.2-1.8-1.2c-1.6,0-2.2,1.3-2.2,2.9C229.3,180.2,229.9,181.5,231.4,181.5z"/>
	<path d="M240.9,181.6h1.9v-10.9h-1.9v-1.6h5.7v2.5h0.1c0.4-0.8,1.4-2.8,3.3-2.8c1.7,0,2.5,1.1,2.5,2.4l-2.4,1.8l-0.3-0.1
		c0-1.2-0.3-1.8-0.9-1.8c-1.2,0-1.9,1.6-1.9,3.2v7h2.2v1.6h-8.1V181.6z"/>
</g>
<g>
	<path class="st2" d="M90.1,228c-0.1,0.5-0.2,0.9-0.2,1.3c0,0.4,0.3,0.5,0.7,0.5c0.4,0,1.1-0.5,1.3-0.7l-0.1,1
		c-0.5,0.5-1.7,0.8-2.2,0.8c-0.8,0-1.5-0.4-1.5-1.5c0-0.2,0-0.4,0.1-0.5h0c-1.2,1.5-2.7,2-3.8,2c-2.3,0-3.8-1.9-3.8-4.4
		c0-4,3.2-6.9,5.9-6.9c1.3,0,2.5,0.6,3,1.8l0,0l1-5.4H89l0.2-1h0.2c1.2,0,2.4-0.1,3.4-0.2L90.1,228z M85.2,229.6
		c1.8,0,2.9-1.5,3.2-2.4c0.4-1.5,0.9-4.1,0.9-4.3c0-1.4-1.3-2.4-2.3-2.4c-2.7,0-4.3,4.1-4.3,6.3C82.6,228.3,83.6,229.6,85.2,229.6z"
		/>
	<path class="st2" d="M96.5,226.3c0,1.9,1.1,3.5,3.2,3.5c1.5,0,2.8-0.9,3.8-2l0.8,0.6c-1.3,1.7-3.2,2.5-5,2.5c-2.5,0-4.8-1.7-4.8-5
		c0-3.4,3-6.3,6.2-6.3c2.7,0,4.5,2,4.5,4.9L96.5,226.3z M102.3,224c0.5-0.1,0.7-0.2,0.7-0.6c0-1.3-1-2.9-2.5-2.9
		c-2.5,0-3.8,2.7-4,4.9L102.3,224z"/>
	<path class="st2" d="M107.2,226.4l1.1,0.1c-0.1,0.2-0.1,0.4-0.1,0.7c0,1.6,1.2,2.7,2.8,2.7c1.2,0,2.3-0.7,2.3-2
		c0-2.4-5.4-2-5.4-5.2c0-2,1.9-3.2,3.6-3.2c1.4,0,2.2,0.5,2.7,1.4h0l0.2-1.3l1.2,0.1l-0.6,3.8l-1.1-0.1c0-0.3,0.1-0.5,0.1-0.9
		c0-1.2-1.1-2-2.3-2c-0.9,0-1.9,0.7-1.9,1.5c0,2.5,5.4,1.6,5.4,5.3c0,2.4-1.9,3.6-4,3.6c-1.4,0-2.6-0.8-3.2-1.8h0l-0.4,1.6l-1.1-0.2
		L107.2,226.4z"/>
	<path class="st2" d="M127,228c-0.1,0.5-0.2,0.9-0.2,1.3c0,0.4,0.3,0.5,0.7,0.5c0.4,0,1.1-0.5,1.3-0.7l-0.1,1
		c-0.5,0.5-1.7,0.8-2.2,0.8c-0.8,0-1.5-0.4-1.5-1.5c0-0.2,0-0.4,0.1-0.5h0c-1.2,1.5-2.7,2-3.8,2c-2.3,0-3.8-1.9-3.8-4.4
		c0-4,3.2-6.9,5.9-6.9c1.3,0,2.5,0.6,3,1.8l0,0l1-5.4h-1.6l0.2-1h0.2c1.2,0,2.4-0.1,3.4-0.2L127,228z M122,229.6
		c1.8,0,2.9-1.5,3.2-2.4c0.4-1.5,0.9-4.1,0.9-4.3c0-1.4-1.3-2.4-2.3-2.4c-2.7,0-4.3,4.1-4.3,6.3C119.5,228.3,120.5,229.6,122,229.6z
		"/>
	<path class="st2" d="M133.3,226.3c0,1.9,1.1,3.5,3.2,3.5c1.5,0,2.8-0.9,3.8-2l0.8,0.6c-1.3,1.7-3.2,2.5-5,2.5c-2.5,0-4.8-1.7-4.8-5
		c0-3.4,3-6.3,6.2-6.3c2.7,0,4.5,2,4.5,4.9L133.3,226.3z M139.2,224c0.5-0.1,0.7-0.2,0.7-0.6c0-1.3-1-2.9-2.5-2.9
		c-2.5,0-3.8,2.7-4,4.9L139.2,224z"/>
	<path class="st2" d="M159.5,230.6c-1.5,0-3.1-0.1-4.6-0.1c-1.5,0-3.1,0-4.6,0.1c0.3-2.1,1.3-3.8,2.5-5c3-2.9,5.9-3.1,5.9-6.8
		c0-1.8-1.1-2.8-2.6-2.8c-1.3,0-2.4,0.8-2.4,2.3c0,0.6,0.2,1,0.3,1.2l0,0.2l-1.6,0.7l-0.2-0.1c-0.2-0.3-0.2-0.8-0.2-1.5
		c0-2.2,1.9-3.8,4.3-3.8c2.5,0,4.6,1.5,4.6,4.2c0,4.2-4.8,4.9-7.5,7.4c-0.9,0.8-1.4,1.7-1.7,2.4h6.9l0.4-1.9h1.2L159.5,230.6z"/>
	<path class="st2" d="M174.1,221c0,4.2-2,9.8-6.4,9.8c-2.8,0-4.1-2.8-4.1-6c0-5,2.6-9.8,6.3-9.8C172.7,215,174.1,217.6,174.1,221z
		 M165.7,226c0,1.4,0.2,3.9,2.2,3.9c3.5,0,4.2-8.3,4.2-10.1c0-1.5-0.3-3.8-2.4-3.8C166.6,216,165.7,224,165.7,226z"/>
	<path class="st2" d="M182.2,217.1l-3.1,2l-0.5-0.8c1.6-1,3.3-1.9,4.7-3.3h1.3l-2.9,14.6h1.9l-0.2,1c-0.9,0-1.9-0.1-2.8-0.1
		c-1,0-1.9,0-2.9,0.1l0.2-1h1.8L182.2,217.1z"/>
	<path class="st2" d="M192,215.2c1.1,0,2.2,0.1,3.2,0.1c1.1,0,2.2,0,3.2-0.1l-0.3,1.5h-5.4l-1.1,4.7c0.8-0.5,1.7-0.8,2.7-0.8
		c2.9,0,4.5,1.9,4.5,4.4c0,3.2-2.6,5.7-6.1,5.7c-2,0-4.1-1-4.3-3.2l1.8-0.6c-0.2,1.6,1.1,2.9,2.7,2.9c2.9,0,3.8-3.7,3.8-5.4
		c0-1.6-0.9-2.7-2.8-2.7c-1.4,0-2.7,0.9-3.5,1.8l-0.3-0.2L192,215.2z"/>
</g>
</svg>
